<svg xmlns="http://www.w3.org/2000/svg" width="364" height="364"><path data-name="Forma 1" d="M244.424 83.438H119.577a36.182 36.182 0 00-36.139 36.139v124.846a36.183 36.183 0 0036.139 36.143h124.847a36.184 36.184 0 0036.142-36.143V119.577a36.183 36.183 0 00-36.142-36.139zM182 246.894a64.894 64.894 0 1164.9-64.9 64.97 64.97 0 01-64.9 64.9zm66.984-116.369a15.355 15.355 0 1115.354-15.354 15.373 15.373 0 01-15.356 15.354zM182 144.531A37.473 37.473 0 10219.469 182 37.522 37.522 0 00182 144.531zM0 0v364h364V0H0zm307.984 244.423a63.626 63.626 0 01-63.56 63.561H119.577a63.629 63.629 0 01-63.561-63.561V119.577a63.631 63.631 0 0163.561-63.561h124.847a63.628 63.628 0 0163.56 63.561v124.846z" fill="#4e4d4e" fill-rule="evenodd"/></svg>